<svg width="45" height="45" viewBox="0 0 45 45" fill="none" xmlns="http://www.w3.org/2000/svg">
<path d="M44.4893 32.8731C43.1883 30.8047 41.2544 24.9523 41.2544 17.3084C41.2544 12.718 39.2786 8.31549 35.7617 5.06952C32.2448 1.82356 27.4748 0 22.5012 0C17.5275 0 12.7575 1.82356 9.24063 5.06952C5.72371 8.31549 3.74793 12.718 3.74793 17.3084C3.74793 24.9544 1.81166 30.8047 0.510653 32.8731C0.178417 33.3989 0.00228624 33.9963 2.21076e-05 34.605C-0.00224203 35.2137 0.169441 35.8122 0.497757 36.3401C0.826073 36.8681 1.29941 37.3068 1.87004 37.612C2.44067 37.9172 3.08841 38.0781 3.74793 38.0786H13.3144C13.7471 40.0326 14.8977 41.7887 16.5717 43.0499C18.2457 44.3111 20.3403 45 22.5012 45C24.6621 45 26.7567 44.3111 28.4306 43.0499C30.1046 41.7887 31.2552 40.0326 31.6879 38.0786H41.2544C41.9137 38.0777 42.5612 37.9165 43.1315 37.6112C43.7018 37.3058 44.1748 36.8671 44.5028 36.3392C44.8309 35.8113 45.0023 35.213 45 34.6045C44.9976 33.9959 44.8215 33.3987 44.4893 32.8731ZM22.5012 41.5403C21.338 41.5399 20.2036 41.2069 19.254 40.5869C18.3045 39.967 17.5864 39.0907 17.1987 38.0786H27.8036C27.4159 39.0907 26.6979 39.967 25.7483 40.5869C24.7987 41.2069 23.6643 41.5399 22.5012 41.5403ZM3.74793 34.6169C5.55293 31.7523 7.49858 25.1145 7.49858 17.3084C7.49858 13.6361 9.0792 10.1141 11.8927 7.51731C14.7063 4.92054 18.5222 3.46169 22.5012 3.46169C26.4801 3.46169 30.2961 4.92054 33.1096 7.51731C35.9231 10.1141 37.5038 13.6361 37.5038 17.3084C37.5038 25.1081 39.4447 31.7458 41.2544 34.6169H3.74793Z" fill="#E8E9EC"/>
</svg>
