<svg width="45" height="45" viewBox="0 0 45 45" fill="none" xmlns="http://www.w3.org/2000/svg">
<path d="M44.7449 42.2618C41.4531 36.3438 36.3804 32.1002 30.4603 30.0886C33.3887 28.2758 35.6638 25.5135 36.9363 22.2259C38.2088 18.9383 38.4084 15.3072 37.5044 11.8902C36.6004 8.47324 34.6428 5.45933 31.9322 3.31133C29.2216 1.16333 25.9079 0 22.5 0C19.0921 0 15.7784 1.16333 13.0678 3.31133C10.3572 5.45933 8.39961 8.47324 7.4956 11.8902C6.59159 15.3072 6.79118 18.9383 8.06371 22.2259C9.33624 25.5135 11.6114 28.2758 14.5397 30.0886C8.61965 32.098 3.5469 36.3415 0.255121 42.2618C0.134406 42.4665 0.0543362 42.6943 0.0196365 42.9317C-0.0150632 43.1691 -0.00369005 43.4113 0.0530848 43.644C0.10986 43.8768 0.210886 44.0953 0.350204 44.2868C0.489521 44.4783 0.664308 44.6388 0.86425 44.7589C1.06419 44.879 1.28524 44.9563 1.51436 44.9861C1.74347 45.0159 1.976 44.9977 2.19824 44.9325C2.42048 44.8674 2.62792 44.7566 2.80833 44.6068C2.98873 44.4569 3.13844 44.271 3.24863 44.0599C7.32066 36.7416 14.518 32.3722 22.5 32.3722C30.482 32.3722 37.6793 36.7416 41.7514 44.0599C41.8616 44.271 42.0113 44.4569 42.1917 44.6068C42.3721 44.7566 42.5795 44.8674 42.8018 44.9325C43.024 44.9977 43.2565 45.0159 43.4856 44.9861C43.7148 44.9563 43.9358 44.879 44.1357 44.7589C44.3357 44.6388 44.5105 44.4783 44.6498 44.2868C44.7891 44.0953 44.8901 43.8768 44.9469 43.644C45.0037 43.4113 45.0151 43.1691 44.9804 42.9317C44.9457 42.6943 44.8656 42.4665 44.7449 42.2618ZM10.3963 16.1892C10.3963 13.6997 11.1062 11.2662 12.4361 9.1963C13.7661 7.12641 15.6565 5.51312 17.8681 4.56046C20.0798 3.60779 22.5134 3.35853 24.8613 3.8442C27.2092 4.32986 29.3659 5.52864 31.0586 7.28894C32.7513 9.04923 33.9041 11.292 34.3711 13.7336C34.8382 16.1752 34.5985 18.706 33.6824 21.0059C32.7663 23.3059 31.2149 25.2716 29.2245 26.6547C27.234 28.0378 24.8939 28.776 22.5 28.776C19.291 28.7724 16.2143 27.4451 13.9452 25.0854C11.676 22.7257 10.3997 19.5263 10.3963 16.1892Z" fill="#E8E9EC"/>
</svg>
