<svg width="44" height="69" viewBox="0 0 44 69" fill="none" xmlns="http://www.w3.org/2000/svg">
<path d="M22.4347 68.183C19.5429 68.183 16.8389 67.9201 14.3227 67.3943C11.844 66.9061 9.75967 66.2489 8.06967 65.4227C6.37967 64.5964 4.99011 63.8078 3.901 63.0567C2.84944 62.3056 1.96689 61.5544 1.25333 60.8033L2.66167 47.1143C4.20144 49.1799 6.267 50.9826 8.85833 52.5223C11.4497 54.0246 14.2476 54.7757 17.252 54.7757C20.2564 54.7757 22.4159 54.4564 23.7303 53.818C25.0823 53.1796 25.7583 52.0153 25.7583 50.3253C25.7583 48.5227 24.9884 46.9829 23.4487 45.706C21.9464 44.4291 19.3363 42.8893 15.6183 41.0867C14.2663 40.4107 13.1209 39.8098 12.182 39.284C11.2431 38.7207 9.985 37.8193 8.40767 36.58C6.86789 35.3031 5.60978 33.9887 4.63333 32.6367C3.65689 31.2471 2.79311 29.482 2.042 27.3413C1.29089 25.1631 0.915333 22.8347 0.915333 20.356C0.915333 6.94867 8.48278 0.245003 23.6177 0.245003C26.0212 0.245003 28.2746 0.507892 30.3777 1.03367C32.5183 1.52189 34.1896 2.06644 35.3913 2.66733C36.5931 3.26822 37.6822 3.98178 38.6587 4.808C39.6727 5.59667 40.3111 6.16 40.574 6.498C40.8369 6.79844 41.0247 7.04256 41.1373 7.23033L38.3207 18.1027C36.856 16.3751 35.0158 15.0982 32.8 14.272C30.6218 13.4082 28.5374 12.9763 26.547 12.9763C21.7399 12.9763 19.3363 14.4786 19.3363 17.483C19.3363 18.2717 19.4866 18.9852 19.787 19.6237C20.0874 20.2621 20.5757 20.8442 21.2517 21.37C21.9277 21.8958 22.5473 22.3464 23.1107 22.722C23.7116 23.0976 24.519 23.567 25.533 24.1303C26.5846 24.6561 27.3732 25.088 27.899 25.426C33.3821 27.7544 37.4006 30.5148 39.9543 33.707C42.5457 36.8992 43.8413 40.7862 43.8413 45.368C43.8413 52.804 42.0011 58.4749 38.3207 62.3807C34.6778 66.2489 29.3824 68.183 22.4347 68.183Z" fill="#41709B"/>
</svg>
